<?xml version="1.0" standalone="no"?>
<!DOCTYPE svg PUBLIC "-//W3C//DTD SVG 20010904//EN"
 "http://www.w3.org/TR/2001/REC-SVG-20010904/DTD/svg10.dtd">
<svg version="1.0" xmlns="http://www.w3.org/2000/svg"
 width="3642.000000pt" height="3642.000000pt" viewBox="0 0 3642.000000 3642.000000"
 preserveAspectRatio="xMidYMid meet">
<metadata>
Created by potrace 1.14, written by Peter Selinger 2001-2017
</metadata>
<g transform="translate(0.000000,3642.000000) scale(0.100000,-0.100000)"
fill="#000000" stroke="none">
<path d="M11 33810 c-11 -8 -7 -31200 4 -31201 5 -1 1177 -2 2603 -3 l2592 -1
0 15605 0 15605 -2596 0 c-1428 0 -2599 -2 -2603 -5z"/>
<path d="M10410 33790 c-1 -33 -1 -12859 0 -12927 l0 -52 2600 0 c1999 0 2600
3 2601 12 0 16 0 12969 0 12982 -1 7 -874 10 -2601 10 l-2600 0 0 -25z"/>
<path d="M20820 33810 c-10 -6 -7 -16035 3 -16125 13 -129 18 -182 23 -240 2
-33 6 -73 9 -90 2 -16 7 -57 10 -90 3 -33 8 -69 10 -80 2 -11 7 -42 10 -70 3
-27 10 -72 15 -100 5 -27 12 -72 16 -100 4 -27 8 -54 10 -60 1 -5 4 -26 8 -45
3 -19 10 -60 16 -90 6 -30 13 -66 16 -80 19 -100 94 -420 115 -485 5 -16 23
-79 40 -140 17 -60 34 -119 38 -130 5 -11 32 -92 61 -180 51 -158 190 -519
248 -645 16 -36 40 -87 52 -115 34 -77 213 -432 254 -503 20 -35 36 -65 36
-67 0 -6 202 -338 265 -435 178 -272 455 -638 655 -864 258 -291 525 -556 775
-771 32 -27 63 -54 69 -60 32 -29 226 -183 326 -259 63 -47 120 -90 125 -94
104 -84 557 -375 750 -482 253 -140 462 -244 685 -342 74 -32 144 -63 155 -68
122 -55 485 -185 720 -256 331 -101 801 -209 1040 -240 28 -3 52 -7 55 -9 3
-2 34 -6 70 -10 36 -4 67 -8 70 -10 3 -2 39 -6 80 -10 41 -4 83 -9 92 -10 9
-2 52 -7 95 -10 43 -4 89 -8 103 -10 22 -4 79 -8 305 -21 82 -5 687 -4 760 0
28 2 97 7 155 10 58 4 121 9 140 11 19 2 64 7 100 10 36 4 76 8 90 10 14 2 54
7 90 10 36 4 72 9 81 10 9 2 40 6 69 10 29 4 62 9 74 11 12 3 44 7 71 10 28 3
53 8 56 9 3 2 28 7 55 10 38 5 267 53 524 110 8 1 40 10 71 19 31 9 65 18 75
20 124 26 704 218 849 281 17 8 84 36 150 63 66 28 149 64 185 80 36 17 67 30
70 30 11 1 457 230 497 255 24 15 45 27 47 27 10 0 277 162 441 268 80 52 327
223 335 232 3 3 21 17 40 30 44 31 26 16 220 171 152 121 261 213 350 295 198
183 288 271 460 450 493 516 964 1187 1287 1839 52 105 99 198 104 208 77 142
329 799 388 1007 5 19 26 91 45 160 33 114 99 370 110 430 3 14 7 36 10 50 3
14 8 36 11 50 3 14 7 35 10 48 2 13 6 31 9 40 3 9 7 35 10 57 4 22 11 63 16
90 11 56 17 91 25 150 3 22 8 51 10 65 3 14 7 48 11 75 3 28 8 58 9 67 2 9 7
48 10 85 4 37 9 77 11 88 2 11 6 54 10 95 3 41 7 91 9 110 2 19 7 82 12 140 4
58 8 3705 8 8105 l0 8000 -2593 0 c-1427 0 -2597 -2 -2601 -5 -4 -3 -7 -3546
-7 -7875 0 -4329 -4 -7908 -9 -7955 -4 -47 -9 -92 -10 -100 -2 -20 -18 -124
-20 -130 -9 -39 -16 -70 -20 -95 -16 -101 -107 -375 -164 -497 -17 -37 -31
-69 -31 -71 0 -3 -64 -121 -114 -212 -6 -11 -39 -61 -73 -112 -329 -485 -803
-843 -1358 -1025 -89 -29 -258 -72 -325 -83 -19 -3 -46 -7 -60 -10 -193 -36
-614 -41 -775 -9 -11 2 -36 6 -55 9 -356 49 -777 222 -1095 450 -188 135 -386
323 -521 495 -54 68 -174 238 -174 245 0 2 -11 20 -25 40 -42 64 -144 270
-190 389 -48 122 -116 358 -134 466 -6 36 -13 76 -15 90 -9 50 -16 117 -22
205 -4 50 -7 3622 -8 7940 l-1 7850 -2593 0 c-1427 0 -2598 -2 -2602 -5z"/>
<path d="M10443 15612 c-18 -2 -33 -9 -34 -15 0 -7 -1 -2931 -2 -6499 -1
-4319 1 -6488 8 -6489 6 -1 1177 -2 2603 -3 l2592 -1 1 45 c0 62 0 12887 0
12930 l-1 35 -2567 0 c-1413 0 -2583 -1 -2600 -3z"/>
</g>
</svg>
